<svg width="48" height="40" viewBox="0 0 48 40" fill="none" xmlns="http://www.w3.org/2000/svg">
<path d="M42 28.009V8.95767C42 8.65052 41.6991 8.43364 41.4077 8.53077L32.1152 11.6283C32.0397 11.6534 31.959 11.6581 31.8811 11.6419L16.1189 8.3581C16.041 8.34188 15.9602 8.34658 15.8848 8.37173L6.3077 11.5641C6.12394 11.6254 6 11.7973 6 11.991V31.0423C6 31.3495 6.30091 31.5664 6.5923 31.4692L15.8848 28.3717C15.9602 28.3466 16.041 28.3419 16.1189 28.3581L31.8811 31.6419C31.959 31.6581 32.0397 31.6534 32.1152 31.6283L41.6923 28.4359C41.8761 28.3746 42 28.2027 42 28.009Z" stroke="#33363F" stroke-width="2" stroke-linejoin="round"/>
<path d="M32 31.6667V11.6667" stroke="#33363F" stroke-width="2"/>
<path d="M16 28.3333L16 8.33333" stroke="#33363F" stroke-width="2"/>
</svg>
